<?xml version="1.0" encoding="utf-8"?>
<!-- Generator: Adobe Illustrator 16.0.0, SVG Export Plug-In . SVG Version: 6.00 Build 0)  -->
<!DOCTYPE svg PUBLIC "-//W3C//DTD SVG 1.1//EN" "http://www.w3.org/Graphics/SVG/1.1/DTD/svg11.dtd">
<svg version="1.1" id="圖層_1" xmlns="http://www.w3.org/2000/svg" xmlns:xlink="http://www.w3.org/1999/xlink" x="0px" y="0px"
	 width="44.955px" height="49.686px" viewBox="0 0 44.955 49.686" enable-background="new 0 0 44.955 49.686" xml:space="preserve">
<g>
	<path fill="#0000FF" d="M14.16,8.102c0.54-3.377,0.919-5.471,1.139-6.289C15.586,0.606,16.404,0,17.751,0
		c1.455,0,2.188,0.703,2.188,2.106c0,0.251-0.05,0.634-0.148,1.14c-0.35,1.697-0.631,3.149-0.845,4.358
		c3.93-0.427,7.288-0.995,10.069-1.698c0.51-0.134,0.914-0.205,1.227-0.205c1.479,0,2.221,0.686,2.221,2.051
		c0,1.108-0.682,1.82-2.047,2.133c-3.037,0.702-7.074,1.365-12.113,1.989c-0.449,3.334-0.786,6.502-1.021,9.503
		c2.451-0.915,4.96-1.528,7.531-1.842c0.291-0.876,0.631-2.036,1.022-3.48c0.311-1.15,1.069-1.727,2.275-1.727
		c0.643,0,1.179,0.197,1.605,0.589c0.409,0.37,0.613,0.864,0.613,1.489c0,0.235-0.038,0.507-0.116,0.819
		c-0.078,0.288-0.244,1.005-0.497,2.134c4.262,0.314,7.688,1.465,10.275,3.449c3.311,2.575,4.964,6.066,4.964,10.473
		c0,6.182-2.959,10.84-8.874,13.978c-1.678,0.899-3.455,1.608-5.344,2.136c-0.719,0.195-1.285,0.291-1.692,0.291
		c-1.031,0-1.547-0.537-1.547-1.609c0-0.719,0.592-1.305,1.78-1.752c3.036-1.188,5.428-2.671,7.184-4.442
		c2.468-2.518,3.704-5.434,3.704-8.746c0-3.648-1.662-6.453-4.988-8.424c-1.851-1.092-4.11-1.677-6.775-1.753
		c-2.453,5.965-6.039,11.571-10.773,16.813c0.313,1.87,0.673,3.49,1.083,4.854c0.135,0.429,0.205,0.83,0.205,1.199
		c0,0.8-0.254,1.422-0.761,1.873c-0.392,0.348-0.875,0.525-1.458,0.525c-1.619,0-2.638-1.656-3.066-4.972
		c-3.368,2.595-6.022,3.89-7.97,3.89c-1.73,0-3.122-0.74-4.175-2.223C0.495,43.535,0,41.782,0,39.655
		c0-2.825,1.206-5.742,3.621-8.742c2.179-2.692,5.193-5.149,9.046-7.372c0.159-2.903,0.48-6.619,0.965-11.141
		c-3.424,0.332-6.022,0.496-7.794,0.496c-1.576,0-2.366-0.7-2.366-2.104c0-1.482,0.945-2.225,2.832-2.225
		C8.175,8.568,10.791,8.412,14.16,8.102z M12.493,28.105c-5.41,3.761-8.115,7.504-8.115,11.229c0,1.152,0.224,2.066,0.672,2.748
		c0.35,0.51,0.761,0.762,1.226,0.762c1.5,0,3.727-1.443,6.686-4.327c-0.312-3.705-0.468-6.776-0.468-9.214V28.105z M23.324,23.541
		c-2.298,0.468-4.39,1.152-6.276,2.049c-0.097,0.777-0.146,1.803-0.146,3.069c0,1.972,0.068,3.842,0.203,5.615
		C19.44,31.332,21.514,27.753,23.324,23.541z"/>
</g>
</svg>
