<?xml version="1.0" encoding="utf-8"?>
<!-- Generator: Adobe Illustrator 16.0.0, SVG Export Plug-In . SVG Version: 6.00 Build 0)  -->
<!DOCTYPE svg PUBLIC "-//W3C//DTD SVG 1.1//EN" "http://www.w3.org/Graphics/SVG/1.1/DTD/svg11.dtd">
<svg version="1.1" id="圖層_1" xmlns="http://www.w3.org/2000/svg" xmlns:xlink="http://www.w3.org/1999/xlink" x="0px" y="0px"
	 width="84.594px" height="35.541px" viewBox="0 0 84.594 35.541" enable-background="new 0 0 84.594 35.541" xml:space="preserve">
<g>
	<path fill="#00FF00" d="M27.375,10.537c0,0,1.445-4.883,5.195-7.633c0,0,11.91-5.314,29.471-0.004c0,0,10.861,4.561,18.298,15.623
		c0,0,2.243,0.873,1.118,3.686c0,0,0.091,0.375-0.253,0.594c0,0,0.826,1.021,1.342,1.936c0,0,1.617-0.023,1.757,0.328
		c0,0,0.656,1.055,0,2.086c0,0-0.329,0.188-0.868,0.328c0,0,0.422,1.219,0.07,1.57c0,0-1.556,1.408-4.305-0.625
		c0,0-1.687-3.029-3.187-5.342c0,0-2.031-3.658-6.781-3.252c0,0-3.719,0.064-5.75,3.064c0,0-1.594,2.592-2.218,6.279
		c0,0-0.282,1.75-1.813,1.375c0,0-0.594,0.06-1.031-0.315c0,0-0.157,0.306-0.375,0.306h-32.03c0,0-2.751,1.458-5.594-1.104
		c0,0,0.25-7.63-6.031-10.255c0,0-6.344-2.813-10.844,4.593c0,0-0.828,2.06-0.875,4.403c0,0-2.718-0.15-2.671-1.322
		c0,0,0.375-2.488,1.406-4.785c0,0-0.703-2.675,0.375-4.735c0,0,0.656-1.126,2.109-0.657c0,0,0.328-0.61,1.313-0.47
		C5.203,16.208,11.109,10.49,27.375,10.537z"/>
	<circle fill="#00FF00" cx="11.641" cy="28.207" r="7.875"/>
	<circle fill="#FFFFFF" cx="11.641" cy="28.207" r="4"/>
	<circle fill="#00FF00" cx="70.139" cy="28.207" r="7.875"/>
	<circle fill="#FFFFFF" cx="70.139" cy="28.207" r="4"/>
	<path fill="#FFFFFF" d="M29.015,12.541h18c0,0,0.986-0.521,1.986-1.707V5.521c0,0-0.992-1.314-1.93-1.438
		c0,0-6.996-0.054-10.683,0.446C36.387,4.53,31.202,5.541,29.015,12.541z"/>
	<path fill="#FFFFFF" d="M50,4.771v6c0,0,0.828,1.77,2.077,1.77h12.187c0,0,2.938-1.073,1-3.886c0,0-5.257-4.54-13.694-4.538
		C51.57,4.117,51,4.084,50,4.771z"/>
</g>
</svg>
